<svg xmlns="http://www.w3.org/2000/svg" style="position:absolute;width:0;height:0;overflow:hidden" aria-hidden="true">
<symbol id="card-RIDING_DAILY" viewBox="0 0 320 200" xmlns="http://www.w3.org/2000/svg">
  <defs>
    <linearGradient id="rd-bg" x1="0" y1="0" x2="1" y2="1">
      <stop offset="0%" stop-color="#0E0D1A"/>
      <stop offset="100%" stop-color="#1F1A0E"/>
    </linearGradient>
    <linearGradient id="rd-glow" x1="0" y1="0" x2="1" y2="0">
      <stop offset="0%" stop-color="#FF5A1F" stop-opacity="0"/>
      <stop offset="100%" stop-color="#FF5A1F" stop-opacity=".55"/>
    </linearGradient>
    <filter id="rd-blur"><feGaussianBlur stdDeviation="12"/></filter>
    <filter id="rd-glow-sm"><feGaussianBlur stdDeviation="4"/></filter>
    <radialGradient id="rd-sun" cx="80%" cy="25%" r="35%">
      <stop offset="0%" stop-color="#FF8C42" stop-opacity=".45"/>
      <stop offset="100%" stop-color="#FF5A1F" stop-opacity="0"/>
    </radialGradient>
  </defs>
  <rect width="320" height="200" fill="url(#rd-bg)"/>
  <rect width="320" height="200" fill="url(#rd-sun)"/>
  <rect width="320" height="200" fill="url(#rd-glow)" opacity=".6"/>
  <!-- 지평선 -->
  <rect x="0" y="145" width="320" height="2" fill="#FF5A1F" opacity=".18"/>
  <!-- 도시 스카이라인 실루엣 -->
  <rect x="180" y="105" width="18" height="40" fill="#2A2318" opacity=".9"/>
  <rect x="200" y="92" width="14" height="53" fill="#2A2318" opacity=".9"/>
  <rect x="215" y="110" width="20" height="35" fill="#2A2318" opacity=".9"/>
  <rect x="237" y="98" width="12" height="47" fill="#2A2318" opacity=".9"/>
  <rect x="251" y="118" width="22" height="27" fill="#2A2318" opacity=".9"/>
  <rect x="275" y="88" width="10" height="57" fill="#2A2318" opacity=".9"/>
  <rect x="288" y="104" width="16" height="41" fill="#2A2318" opacity=".9"/>
  <!-- 도로 -->
  <polygon points="60,200 260,200 200,148 120,148" fill="#1C1815" opacity=".95"/>
  <line x1="160" y1="148" x2="160" y2="200" stroke="#FF5A1F" stroke-width="1.5" stroke-dasharray="8,6" opacity=".35"/>
  <!-- 라이더 + 바이크 (실루엣) -->
  <g transform="translate(52,90)">
    <!-- 바퀴 뒤 -->
    <circle cx="8" cy="60" r="20" fill="none" stroke="#3A3020" stroke-width="5"/>
    <circle cx="8" cy="60" r="14" fill="#1C1810"/>
    <!-- 바이크 프레임 -->
    <polygon points="8,40 55,38 70,52 55,58 8,55" fill="#2A2218"/>
    <!-- 앞바퀴 -->
    <circle cx="72" cy="58" r="18" fill="none" stroke="#3A3020" stroke-width="5"/>
    <circle cx="72" cy="58" r="12" fill="#1C1810"/>
    <!-- 라이더 몸 -->
    <ellipse cx="38" cy="28" rx="12" ry="17" fill="#2E2518"/>
    <!-- 헬멧 -->
    <ellipse cx="42" cy="15" rx="11" ry="10" fill="#FF5A1F" opacity=".85"/>
    <ellipse cx="45" cy="17" rx="5" ry="3" fill="#FFB800" opacity=".6"/>
    <!-- 글로우 헤드라이트 -->
    <ellipse cx="72" cy="42" rx="6" ry="3" fill="#FF8C42" opacity=".9" filter="url(#rd-glow-sm)"/>
  </g>
  <!-- 헤드라이트 빔 -->
  <polygon points="118,131 200,145 200,148 118,148" fill="#FF8C42" opacity=".12"/>
  <!-- 브랜드 오렌지 글로우 (우하단) -->
  <ellipse cx="270" cy="175" rx="60" ry="30" fill="#FF5A1F" opacity=".22" filter="url(#rd-blur)"/>
  <!-- 카드 보더 -->
  <rect width="320" height="200" rx="14" fill="none" stroke="#FF5A1F" stroke-width="1" opacity=".3"/>
</symbol>
<symbol id="card-RIDING_WEEKLY" viewBox="0 0 320 200" xmlns="http://www.w3.org/2000/svg">
  <defs>
    <linearGradient id="rw-bg" x1="0" y1="0" x2="1" y2="1">
      <stop offset="0%" stop-color="#0A0E1A"/>
      <stop offset="100%" stop-color="#0E1A2A"/>
    </linearGradient>
    <filter id="rw-blur"><feGaussianBlur stdDeviation="14"/></filter>
    <filter id="rw-glow-sm"><feGaussianBlur stdDeviation="5"/></filter>
    <radialGradient id="rw-cyan" cx="75%" cy="40%" r="40%">
      <stop offset="0%" stop-color="#6ED8D0" stop-opacity=".35"/>
      <stop offset="100%" stop-color="#6ED8D0" stop-opacity="0"/>
    </radialGradient>
  </defs>
  <rect width="320" height="200" fill="url(#rw-bg)"/>
  <rect width="320" height="200" fill="url(#rw-cyan)"/>
  <!-- 지도 그리드 배경 -->
  <line x1="0" y1="50" x2="320" y2="50" stroke="#6ED8D0" stroke-width=".5" opacity=".12"/>
  <line x1="0" y1="100" x2="320" y2="100" stroke="#6ED8D0" stroke-width=".5" opacity=".12"/>
  <line x1="0" y1="150" x2="320" y2="150" stroke="#6ED8D0" stroke-width=".5" opacity=".12"/>
  <line x1="80" y1="0" x2="80" y2="200" stroke="#6ED8D0" stroke-width=".5" opacity=".12"/>
  <line x1="160" y1="0" x2="160" y2="200" stroke="#6ED8D0" stroke-width=".5" opacity=".12"/>
  <line x1="240" y1="0" x2="240" y2="200" stroke="#6ED8D0" stroke-width=".5" opacity=".12"/>
  <!-- 경로 라인 -->
  <path d="M 40,160 C 80,140 100,120 130,105 C 160,90 180,80 210,70 C 240,60 265,55 290,45" 
        fill="none" stroke="#FF5A1F" stroke-width="2.5" stroke-dasharray="6,4" opacity=".7"/>
  <!-- 경로 핀들 -->
  <circle cx="40" cy="160" r="7" fill="#FF5A1F" opacity=".9"/>
  <circle cx="40" cy="160" r="12" fill="#FF5A1F" opacity=".2" filter="url(#rw-glow-sm)"/>
  <circle cx="130" cy="105" r="6" fill="#6ED8D0" opacity=".85"/>
  <circle cx="130" cy="105" r="10" fill="#6ED8D0" opacity=".18" filter="url(#rw-glow-sm)"/>
  <circle cx="210" cy="70" r="6" fill="#6ED8D0" opacity=".85"/>
  <circle cx="290" cy="45" r="7" fill="#FFB800" opacity=".9"/>
  <circle cx="290" cy="45" r="12" fill="#FFB800" opacity=".2" filter="url(#rw-glow-sm)"/>
  <!-- 도로 실루엣 -->
  <rect x="0" y="152" width="320" height="48" fill="#0E0D18" opacity=".8"/>
  <!-- 라이더 (작게, 움직임) -->
  <g transform="translate(25,145) scale(0.7)">
    <circle cx="8" cy="30" r="12" fill="none" stroke="#2A2A3A" stroke-width="3"/>
    <polygon points="8,18 40,16 50,26 40,30 8,28" fill="#1A1A2A"/>
    <circle cx="52" cy="28" r="10" fill="none" stroke="#2A2A3A" stroke-width="3"/>
    <ellipse cx="28" cy="10" rx="8" ry="11" fill="#1E2030"/>
    <ellipse cx="30" cy="4" rx="7" ry="6" fill="#6ED8D0" opacity=".8"/>
  </g>
  <!-- 글로우 -->
  <ellipse cx="290" cy="45" rx="40" ry="20" fill="#FFB800" opacity=".15" filter="url(#rw-blur)"/>
  <rect width="320" height="200" rx="14" fill="none" stroke="#6ED8D0" stroke-width="1" opacity=".25"/>
</symbol>
<symbol id="card-RIDING_MONTHLY" viewBox="0 0 320 200" xmlns="http://www.w3.org/2000/svg">
  <defs>
    <linearGradient id="rm-bg" x1="0" y1="0" x2="1" y2="1">
      <stop offset="0%" stop-color="#0F0E1A"/>
      <stop offset="100%" stop-color="#1A150A"/>
    </linearGradient>
    <radialGradient id="rm-gold" cx="65%" cy="50%" r="45%">
      <stop offset="0%" stop-color="#FFB800" stop-opacity=".38"/>
      <stop offset="100%" stop-color="#FFB800" stop-opacity="0"/>
    </radialGradient>
    <filter id="rm-blur"><feGaussianBlur stdDeviation="15"/></filter>
    <filter id="rm-glow"><feGaussianBlur stdDeviation="6"/></filter>
  </defs>
  <rect width="320" height="200" fill="url(#rm-bg)"/>
  <rect width="320" height="200" fill="url(#rm-gold)"/>
  <!-- 큰 숫자 배경 "30" -->
  <text x="195" y="170" font-family="Space Grotesk" font-size="130" font-weight="800" fill="#FFB800" opacity=".06" text-anchor="middle">30</text>
  <!-- 트로피 일러스트 -->
  <g transform="translate(195,30)">
    <!-- 트로피 컵 -->
    <path d="M -22,0 Q -22,45 0,50 Q 22,45 22,0 Z" fill="#FFB800" opacity=".85"/>
    <rect x="-8" y="50" width="16" height="20" fill="#CC9200" opacity=".8"/>
    <rect x="-18" y="70" width="36" height="6" rx="3" fill="#FFB800" opacity=".7"/>
    <!-- 별 -->
    <text x="0" y="35" font-size="18" text-anchor="middle" opacity=".9">★</text>
    <!-- 손잡이 -->
    <path d="M -22,8 Q -40,8 -38,22 Q -36,35 -22,32" fill="none" stroke="#FFB800" stroke-width="3" opacity=".7"/>
    <path d="M 22,8 Q 40,8 38,22 Q 36,35 22,32" fill="none" stroke="#FFB800" stroke-width="3" opacity=".7"/>
    <!-- 글로우 -->
    <ellipse cx="0" cy="35" rx="35" ry="35" fill="#FFB800" opacity=".12" filter="url(#rm-blur)"/>
  </g>
  <!-- sparkle 효과 -->
  <circle cx="155" cy="45" r="2" fill="#FFB800" opacity=".9"/>
  <circle cx="260" cy="35" r="1.5" fill="#FFB800" opacity=".7"/>
  <circle cx="145" cy="90" r="1" fill="#FFB800" opacity=".6"/>
  <circle cx="278" cy="80" r="2" fill="#FFB800" opacity=".5"/>
  <line x1="155" y1="38" x2="155" y2="52" stroke="#FFB800" stroke-width="1" opacity=".5"/>
  <line x1="148" y1="45" x2="162" y2="45" stroke="#FFB800" stroke-width="1" opacity=".5"/>
  <line x1="260" y1="28" x2="260" y2="42" stroke="#FFB800" stroke-width="1" opacity=".4"/>
  <!-- 도로 + 라이더 -->
  <rect x="0" y="148" width="320" height="52" fill="#0E0D18" opacity=".85"/>
  <g transform="translate(25,140) scale(0.7)">
    <circle cx="8" cy="30" r="12" fill="none" stroke="#2A2A2A" stroke-width="3"/>
    <polygon points="8,18 40,16 50,26 40,30 8,28" fill="#1A1A1A"/>
    <circle cx="52" cy="28" r="10" fill="none" stroke="#2A2A2A" stroke-width="3"/>
    <ellipse cx="28" cy="10" rx="8" ry="11" fill="#1A1A1A"/>
    <ellipse cx="30" cy="4" rx="7" ry="6" fill="#FFB800" opacity=".9"/>
  </g>
  <rect width="320" height="200" rx="14" fill="none" stroke="#FFB800" stroke-width="1" opacity=".3"/>
</symbol>
<symbol id="card-COMMUNITY_DAILY" viewBox="0 0 320 200" xmlns="http://www.w3.org/2000/svg">
  <defs>
    <linearGradient id="cd-bg" x1="0" y1="0" x2="1" y2="1">
      <stop offset="0%" stop-color="#0F0D0A"/>
      <stop offset="100%" stop-color="#1A1208"/>
    </linearGradient>
    <radialGradient id="cd-warm" cx="60%" cy="55%" r="45%">
      <stop offset="0%" stop-color="#FF8C42" stop-opacity=".35"/>
      <stop offset="100%" stop-color="#FF8C42" stop-opacity="0"/>
    </radialGradient>
    <filter id="cd-blur"><feGaussianBlur stdDeviation="12"/></filter>
    <filter id="cd-glow-sm"><feGaussianBlur stdDeviation="4"/></filter>
  </defs>
  <rect width="320" height="200" fill="url(#cd-bg)"/>
  <rect width="320" height="200" fill="url(#cd-warm)"/>
  <!-- 카페 등불 배경 -->
  <ellipse cx="200" cy="80" rx="45" ry="35" fill="#FF8C42" opacity=".18" filter="url(#cd-blur)"/>
  <ellipse cx="260" cy="65" rx="30" ry="22" fill="#FFB800" opacity=".14" filter="url(#cd-blur)"/>
  <!-- 바이크 2대 실루엣 -->
  <g transform="translate(60,115) scale(0.75)">
    <circle cx="8" cy="35" r="14" fill="none" stroke="#2A2010" stroke-width="4"/>
    <polygon points="8,20 42,18 56,30 42,36 8,33" fill="#221808"/>
    <circle cx="58" cy="30" r="12" fill="none" stroke="#2A2010" stroke-width="4"/>
    <ellipse cx="30" cy="12" rx="9" ry="12" fill="#221808"/>
    <ellipse cx="33" cy="5" rx="8" ry="7" fill="#FF8C42" opacity=".8"/>
  </g>
  <g transform="translate(140,118) scale(0.7)">
    <circle cx="8" cy="35" r="14" fill="none" stroke="#2A2010" stroke-width="4"/>
    <polygon points="8,20 42,18 56,30 42,36 8,33" fill="#221808"/>
    <circle cx="58" cy="30" r="12" fill="none" stroke="#2A2010" stroke-width="4"/>
    <ellipse cx="30" cy="12" rx="9" ry="12" fill="#221808"/>
    <ellipse cx="33" cy="5" rx="8" ry="7" fill="#FFB800" opacity=".8"/>
  </g>
  <!-- 카페 창문 조명 -->
  <rect x="220" y="80" width="70" height="55" rx="4" fill="#1A1008" opacity=".9"/>
  <rect x="228" y="88" width="25" height="20" rx="2" fill="#FF8C42" opacity=".25"/>
  <rect x="257" y="88" width="25" height="20" rx="2" fill="#FFB800" opacity=".2"/>
  <rect x="228" y="112" width="54" height="16" rx="2" fill="#FF5A1F" opacity=".2"/>
  <!-- 대화 버블 효과 -->
  <circle cx="115" cy="100" r="5" fill="#FF8C42" opacity=".5"/>
  <circle cx="128" cy="93" r="3.5" fill="#FF8C42" opacity=".4"/>
  <circle cx="138" cy="88" r="2.5" fill="#FF8C42" opacity=".3"/>
  <!-- 하단 도로 -->
  <rect x="0" y="155" width="320" height="45" fill="#0E0C08" opacity=".9"/>
  <!-- 등불 글로우 -->
  <ellipse cx="240" cy="105" rx="50" ry="30" fill="#FF8C42" opacity=".1" filter="url(#cd-blur)"/>
  <rect width="320" height="200" rx="14" fill="none" stroke="#FF8C42" stroke-width="1" opacity=".3"/>
</symbol>
<symbol id="card-COMMUNITY_WEEKLY" viewBox="0 0 320 200" xmlns="http://www.w3.org/2000/svg">
  <defs>
    <linearGradient id="cw-bg" x1="0" y1="0" x2="1" y2="1">
      <stop offset="0%" stop-color="#0E0A1A"/>
      <stop offset="100%" stop-color="#1A1020"/>
    </linearGradient>
    <radialGradient id="cw-purple" cx="60%" cy="45%" r="40%">
      <stop offset="0%" stop-color="#8B5CF6" stop-opacity=".3"/>
      <stop offset="100%" stop-color="#8B5CF6" stop-opacity="0"/>
    </radialGradient>
    <radialGradient id="cw-brand" cx="80%" cy="70%" r="35%">
      <stop offset="0%" stop-color="#FF5A1F" stop-opacity=".25"/>
      <stop offset="100%" stop-color="#FF5A1F" stop-opacity="0"/>
    </radialGradient>
    <filter id="cw-blur"><feGaussianBlur stdDeviation="14"/></filter>
  </defs>
  <rect width="320" height="200" fill="url(#cw-bg)"/>
  <rect width="320" height="200" fill="url(#cw-purple)"/>
  <rect width="320" height="200" fill="url(#cw-brand)"/>
  <!-- 라이더 5명 라인업 실루엣 -->
  <g opacity=".85">
    <!-- 라이더 1 -->
    <g transform="translate(22,90)">
      <circle cx="8" cy="35" r="13" fill="none" stroke="#1E1828" stroke-width="3"/>
      <polygon points="8,22 36,20 48,30 36,34 8,32" fill="#181022"/>
      <circle cx="50" cy="28" r="11" fill="none" stroke="#1E1828" stroke-width="3"/>
      <ellipse cx="24" cy="13" rx="7" ry="10" fill="#181022"/>
      <ellipse cx="26" cy="6" rx="6" ry="5.5" fill="#8B5CF6" opacity=".75"/>
    </g>
    <!-- 라이더 2 -->
    <g transform="translate(72,88)">
      <circle cx="8" cy="35" r="13" fill="none" stroke="#1E1828" stroke-width="3"/>
      <polygon points="8,22 36,20 48,30 36,34 8,32" fill="#181022"/>
      <circle cx="50" cy="28" r="11" fill="none" stroke="#1E1828" stroke-width="3"/>
      <ellipse cx="24" cy="13" rx="7" ry="10" fill="#181022"/>
      <ellipse cx="26" cy="6" rx="6" ry="5.5" fill="#FF5A1F" opacity=".75"/>
    </g>
    <!-- 라이더 3 (중앙, 앞) -->
    <g transform="translate(128,84) scale(1.12)">
      <circle cx="8" cy="35" r="13" fill="none" stroke="#251E32" stroke-width="3.5"/>
      <polygon points="8,22 36,20 48,30 36,34 8,32" fill="#1E1528"/>
      <circle cx="50" cy="28" r="11" fill="none" stroke="#251E32" stroke-width="3.5"/>
      <ellipse cx="24" cy="13" rx="7" ry="10" fill="#1E1528"/>
      <ellipse cx="26" cy="6" rx="6" ry="5.5" fill="#8B5CF6" opacity=".95"/>
    </g>
    <!-- 라이더 4 -->
    <g transform="translate(188,88)">
      <circle cx="8" cy="35" r="13" fill="none" stroke="#1E1828" stroke-width="3"/>
      <polygon points="8,22 36,20 48,30 36,34 8,32" fill="#181022"/>
      <circle cx="50" cy="28" r="11" fill="none" stroke="#1E1828" stroke-width="3"/>
      <ellipse cx="24" cy="13" rx="7" ry="10" fill="#181022"/>
      <ellipse cx="26" cy="6" rx="6" ry="5.5" fill="#FF5A1F" opacity=".65"/>
    </g>
    <!-- 라이더 5 -->
    <g transform="translate(240,92)">
      <circle cx="8" cy="35" r="13" fill="none" stroke="#1E1828" stroke-width="3"/>
      <polygon points="8,22 36,20 48,30 36,34 8,32" fill="#181022"/>
      <circle cx="50" cy="28" r="11" fill="none" stroke="#1E1828" stroke-width="3"/>
      <ellipse cx="24" cy="13" rx="7" ry="10" fill="#181022"/>
      <ellipse cx="26" cy="6" rx="6" ry="5.5" fill="#8B5CF6" opacity=".55"/>
    </g>
  </g>
  <!-- 보라 글로우 -->
  <ellipse cx="170" cy="130" rx="80" ry="35" fill="#8B5CF6" opacity=".12" filter="url(#cw-blur)"/>
  <!-- 도로 -->
  <rect x="0" y="155" width="320" height="45" fill="#0E0C18" opacity=".9"/>
  <rect width="320" height="200" rx="14" fill="none" stroke="#8B5CF6" stroke-width="1" opacity=".3"/>
</symbol>
<symbol id="card-MAINT_DAILY" viewBox="0 0 320 200" xmlns="http://www.w3.org/2000/svg">
  <defs>
    <linearGradient id="md-bg" x1="0" y1="0" x2="1" y2="1">
      <stop offset="0%" stop-color="#0A0E0A"/>
      <stop offset="100%" stop-color="#141818"/>
    </linearGradient>
    <radialGradient id="md-spark" cx="65%" cy="45%" r="40%">
      <stop offset="0%" stop-color="#FACC15" stop-opacity=".28"/>
      <stop offset="100%" stop-color="#FACC15" stop-opacity="0"/>
    </radialGradient>
    <filter id="md-blur"><feGaussianBlur stdDeviation="12"/></filter>
    <filter id="md-glow-sm"><feGaussianBlur stdDeviation="5"/></filter>
  </defs>
  <rect width="320" height="200" fill="url(#md-bg)"/>
  <rect width="320" height="200" fill="url(#md-spark)"/>
  <!-- 정비소 바닥/배경 -->
  <rect x="0" y="130" width="320" height="70" fill="#0E1010" opacity=".9"/>
  <!-- 바이크 클로즈업 — 앞바퀴 + 체인 -->
  <g transform="translate(50,40)">
    <!-- 큰 휠 -->
    <circle cx="70" cy="95" r="65" fill="none" stroke="#1E2020" stroke-width="10"/>
    <circle cx="70" cy="95" r="52" fill="none" stroke="#282828" stroke-width="4"/>
    <circle cx="70" cy="95" r="20" fill="#141414"/>
    <!-- 스포크 -->
    <line x1="70" y1="43" x2="70" y2="75" stroke="#242424" stroke-width="2.5"/>
    <line x1="70" y1="115" x2="70" y2="147" stroke="#242424" stroke-width="2.5"/>
    <line x1="18" y1="95" x2="50" y2="95" stroke="#242424" stroke-width="2.5"/>
    <line x1="90" y1="95" x2="122" y2="95" stroke="#242424" stroke-width="2.5"/>
    <line x1="33" y1="58" x2="55" y2="78" stroke="#242424" stroke-width="2.5"/>
    <line x1="85" y1="112" x2="107" y2="132" stroke="#242424" stroke-width="2.5"/>
    <!-- 타이어 외곽 -->
    <circle cx="70" cy="95" r="65" fill="none" stroke="#FACC15" stroke-width="1.5" opacity=".2"/>
  </g>
  <!-- 렌치 아이콘 -->
  <g transform="translate(200,55) rotate(35)">
    <rect x="-5" y="-40" width="10" height="65" rx="5" fill="#3A3020"/>
    <ellipse cx="0" cy="-40" rx="12" ry="10" fill="none" stroke="#3A3020" stroke-width="5"/>
    <ellipse cx="0" cy="25" rx="10" ry="8" fill="none" stroke="#3A3020" stroke-width="5"/>
    <!-- 렌치 하이라이트 -->
    <rect x="-2" y="-38" width="4" height="61" rx="2" fill="#FACC15" opacity=".3"/>
  </g>
  <!-- 스파크 효과 -->
  <line x1="225" y1="50" x2="240" y2="38" stroke="#FACC15" stroke-width="1.5" opacity=".7"/>
  <line x1="225" y1="50" x2="238" y2="55" stroke="#FACC15" stroke-width="1.5" opacity=".6"/>
  <line x1="225" y1="50" x2="212" y2="40" stroke="#FACC15" stroke-width="1" opacity=".5"/>
  <circle cx="225" cy="50" r="3" fill="#FACC15" opacity=".9"/>
  <circle cx="225" cy="50" r="8" fill="#FACC15" opacity=".15" filter="url(#md-glow-sm)"/>
  <!-- 글로우 -->
  <ellipse cx="230" cy="90" rx="55" ry="40" fill="#FACC15" opacity=".06" filter="url(#md-blur)"/>
  <rect width="320" height="200" rx="14" fill="none" stroke="#FACC15" stroke-width="1" opacity=".3"/>
</symbol>
<symbol id="card-MAINT_WEEKLY" viewBox="0 0 320 200" xmlns="http://www.w3.org/2000/svg">
  <defs>
    <linearGradient id="mw-bg" x1="0" y1="0" x2="1" y2="1">
      <stop offset="0%" stop-color="#080E10"/>
      <stop offset="100%" stop-color="#0E1818"/>
    </linearGradient>
    <radialGradient id="mw-cyan" cx="55%" cy="40%" r="40%">
      <stop offset="0%" stop-color="#6ED8D0" stop-opacity=".28"/>
      <stop offset="100%" stop-color="#6ED8D0" stop-opacity="0"/>
    </radialGradient>
    <filter id="mw-blur"><feGaussianBlur stdDeviation="14"/></filter>
  </defs>
  <rect width="320" height="200" fill="url(#mw-bg)"/>
  <rect width="320" height="200" fill="url(#mw-cyan)"/>
  <!-- 깨끗한 바이크 전체 실루엣 -->
  <g transform="translate(40,55) scale(1.1)">
    <!-- 뒷바퀴 -->
    <circle cx="20" cy="85" r="38" fill="none" stroke="#182020" stroke-width="10"/>
    <circle cx="20" cy="85" r="27" fill="none" stroke="#182020" stroke-width="3"/>
    <circle cx="20" cy="85" r="12" fill="#0E1414"/>
    <!-- 앞바퀴 -->
    <circle cx="155" cy="85" r="35" fill="none" stroke="#182020" stroke-width="10"/>
    <circle cx="155" cy="85" r="25" fill="none" stroke="#182020" stroke-width="3"/>
    <circle cx="155" cy="85" r="11" fill="#0E1414"/>
    <!-- 프레임 -->
    <polygon points="20,50 60,28 110,32 155,50 145,65 100,60 55,65 20,68" fill="#162020" opacity=".95"/>
    <!-- 시트 -->
    <ellipse cx="80" cy="32" rx="38" ry="10" fill="#0E1818"/>
    <!-- 핸들바 -->
    <line x1="140" y1="30" x2="165" y2="20" stroke="#182020" stroke-width="5"/>
    <circle cx="165" cy="18" r="5" fill="#182020"/>
    <!-- 빛 반사 -->
    <line x1="60" y1="32" x2="115" y2="30" stroke="#6ED8D0" stroke-width="1.5" opacity=".35"/>
    <line x1="145" y1="62" x2="155" y2="50" stroke="#6ED8D0" stroke-width="1" opacity=".25"/>
    <!-- 헤드라이트 글로우 -->
    <ellipse cx="155" cy="50" rx="12" ry="8" fill="#6ED8D0" opacity=".3"/>
  </g>
  <!-- 빛 줄기 (신선한 느낌) -->
  <line x1="180" y1="0" x2="220" y2="80" stroke="#6ED8D0" stroke-width="18" opacity=".05"/>
  <line x1="210" y1="0" x2="250" y2="80" stroke="#6ED8D0" stroke-width="12" opacity=".04"/>
  <!-- 글로우 -->
  <ellipse cx="185" cy="120" rx="60" ry="30" fill="#6ED8D0" opacity=".08" filter="url(#mw-blur)"/>
  <rect width="320" height="200" rx="14" fill="none" stroke="#6ED8D0" stroke-width="1" opacity=".28"/>
</symbol>
<symbol id="card-MARKET_DAILY" viewBox="0 0 320 200" xmlns="http://www.w3.org/2000/svg">
  <defs>
    <linearGradient id="mkd-bg" x1="0" y1="0" x2="1" y2="1">
      <stop offset="0%" stop-color="#100C05"/>
      <stop offset="100%" stop-color="#1A1205"/>
    </linearGradient>
    <radialGradient id="mkd-warm" cx="60%" cy="50%" r="45%">
      <stop offset="0%" stop-color="#FFA500" stop-opacity=".35"/>
      <stop offset="100%" stop-color="#FFA500" stop-opacity="0"/>
    </radialGradient>
    <filter id="mkd-blur"><feGaussianBlur stdDeviation="12"/></filter>
    <filter id="mkd-glow-sm"><feGaussianBlur stdDeviation="4"/></filter>
  </defs>
  <rect width="320" height="200" fill="url(#mkd-bg)"/>
  <rect width="320" height="200" fill="url(#mkd-warm)"/>
  <!-- 시장 노점 지붕 -->
  <polygon points="120,75 320,60 320,85 120,100" fill="#1A1005" opacity=".9"/>
  <polygon points="80,80 280,65 280,88 80,103" fill="#221A08" opacity=".6"/>
  <!-- 시장 등불 -->
  <ellipse cx="170" cy="68" rx="6" ry="8" fill="#FBBF24" opacity=".75"/>
  <ellipse cx="170" cy="76" rx="3" ry="3" fill="#FBBF24" opacity=".9"/>
  <ellipse cx="210" cy="65" rx="5" ry="7" fill="#FF8C42" opacity=".7"/>
  <ellipse cx="250" cy="66" rx="6" ry="8" fill="#FBBF24" opacity=".65"/>
  <ellipse cx="285" cy="68" rx="4" ry="6" fill="#FF8C42" opacity=".55"/>
  <!-- 등불 글로우 -->
  <ellipse cx="170" cy="80" rx="18" ry="14" fill="#FBBF24" opacity=".2" filter="url(#mkd-glow-sm)"/>
  <ellipse cx="250" cy="78" rx="15" ry="12" fill="#FBBF24" opacity=".15" filter="url(#mkd-glow-sm)"/>
  <!-- 라이더 정차 -->
  <g transform="translate(18,108) scale(0.85)">
    <circle cx="8" cy="40" r="16" fill="none" stroke="#2A1808" stroke-width="4"/>
    <polygon points="8,24 46,22 60,34 46,40 8,38" fill="#1A0E04"/>
    <circle cx="62" cy="32" r="13" fill="none" stroke="#2A1808" stroke-width="4"/>
    <ellipse cx="30" cy="14" rx="9" ry="13" fill="#1A0E04"/>
    <ellipse cx="33" cy="6" rx="8" ry="7" fill="#FF8C42" opacity=".85"/>
  </g>
  <!-- 채소/과일 실루엣 -->
  <ellipse cx="150" cy="120" rx="12" ry="8" fill="#2A3820" opacity=".8"/>
  <ellipse cx="172" cy="118" rx="9" ry="7" fill="#3A2808" opacity=".8"/>
  <ellipse cx="192" cy="120" rx="11" ry="7" fill="#2A3820" opacity=".7"/>
  <!-- 글로우 -->
  <ellipse cx="230" cy="85" rx="70" ry="30" fill="#FFA500" opacity=".08" filter="url(#mkd-blur)"/>
  <rect width="320" height="200" rx="14" fill="none" stroke="#FBBF24" stroke-width="1" opacity=".3"/>
</symbol>
<symbol id="card-MARKET_WEEKLY" viewBox="0 0 320 200" xmlns="http://www.w3.org/2000/svg">
  <defs>
    <linearGradient id="mkw-bg" x1="0" y1="0" x2="1" y2="1">
      <stop offset="0%" stop-color="#0F0C08"/>
      <stop offset="100%" stop-color="#181208"/>
    </linearGradient>
    <radialGradient id="mkw-gold" cx="50%" cy="50%" r="45%">
      <stop offset="0%" stop-color="#FFB800" stop-opacity=".22"/>
      <stop offset="100%" stop-color="#FFB800" stop-opacity="0"/>
    </radialGradient>
    <filter id="mkw-blur"><feGaussianBlur stdDeviation="14"/></filter>
  </defs>
  <rect width="320" height="200" fill="url(#mkw-bg)"/>
  <rect width="320" height="200" fill="url(#mkw-gold)"/>
  <!-- 지도 격자 (시장 도장깨기) -->
  <line x1="0" y1="65" x2="320" y2="65" stroke="#FFB800" stroke-width=".4" opacity=".1"/>
  <line x1="0" y1="115" x2="320" y2="115" stroke="#FFB800" stroke-width=".4" opacity=".1"/>
  <line x1="0" y1="165" x2="320" y2="165" stroke="#FFB800" stroke-width=".4" opacity=".08"/>
  <line x1="80" y1="0" x2="80" y2="200" stroke="#FFB800" stroke-width=".4" opacity=".08"/>
  <line x1="160" y1="0" x2="160" y2="200" stroke="#FFB800" stroke-width=".4" opacity=".08"/>
  <line x1="240" y1="0" x2="240" y2="200" stroke="#FFB800" stroke-width=".4" opacity=".08"/>
  <!-- 시장 아이콘들 (별 모양) -->
  <circle cx="75" cy="85" r="10" fill="#FFB800" opacity=".7"/>
  <text x="75" y="89" font-size="10" text-anchor="middle" opacity=".9">🏪</text>
  <circle cx="165" cy="60" r="10" fill="#FBBF24" opacity=".6"/>
  <text x="165" y="64" font-size="10" text-anchor="middle" opacity=".85">🏪</text>
  <circle cx="255" cy="90" r="10" fill="#FFB800" opacity=".65"/>
  <text x="255" y="94" font-size="10" text-anchor="middle" opacity=".8">🏪</text>
  <circle cx="120" cy="130" r="10" fill="#FBBF24" opacity=".5"/>
  <text x="120" y="134" font-size="10" text-anchor="middle" opacity=".7">🏪</text>
  <circle cx="210" cy="145" r="10" fill="#FFB800" opacity=".45"/>
  <text x="210" y="149" font-size="10" text-anchor="middle" opacity=".65">🏪</text>
  <!-- 연결 경로 -->
  <path d="M 75,85 L 165,60 L 255,90 L 210,145 L 120,130 L 75,85" fill="none" stroke="#FFB800" stroke-width="1.5" stroke-dasharray="5,4" opacity=".35"/>
  <!-- 라이더 (작게) -->
  <g transform="translate(22,145) scale(0.6)">
    <circle cx="8" cy="35" r="14" fill="none" stroke="#2A1E08" stroke-width="4"/>
    <polygon points="8,22 40,20 52,30 40,34 8,32" fill="#1A1205"/>
    <circle cx="54" cy="28" r="12" fill="none" stroke="#2A1E08" stroke-width="4"/>
    <ellipse cx="26" cy="13" rx="7" ry="11" fill="#1A1205"/>
    <ellipse cx="28" cy="6" rx="6" ry="6" fill="#FBBF24" opacity=".8"/>
  </g>
  <!-- 체크마크 (완료된 시장) -->
  <circle cx="75" cy="85" r="5" fill="#16A34A" opacity=".9"/>
  <!-- 글로우 -->
  <ellipse cx="165" cy="100" rx="70" ry="40" fill="#FFB800" opacity=".06" filter="url(#mkw-blur)"/>
  <rect width="320" height="200" rx="14" fill="none" stroke="#FFB800" stroke-width="1" opacity=".28"/>
</symbol>
<symbol id="card-MIXED_DAILY" viewBox="0 0 320 200" xmlns="http://www.w3.org/2000/svg">
  <defs>
    <linearGradient id="mx-bg" x1="0" y1="0" x2="1" y2="1">
      <stop offset="0%" stop-color="#0E081A"/>
      <stop offset="100%" stop-color="#0A1A18"/>
    </linearGradient>
    <filter id="mx-blur"><feGaussianBlur stdDeviation="14"/></filter>
    <filter id="mx-glow-sm"><feGaussianBlur stdDeviation="5"/></filter>
  </defs>
  <rect width="320" height="200" fill="url(#mx-bg)"/>
  <!-- 분할 그리드 (4분할 콜라주) -->
  <!-- 좌상단: 라이딩 (마젠타) -->
  <rect x="0" y="30" width="158" height="84" fill="#1A0815" opacity=".9"/>
  <ellipse cx="79" cy="72" rx="50" ry="30" fill="#FF2D9C" opacity=".15" filter="url(#mx-blur)"/>
  <g transform="translate(18,45) scale(0.65)">
    <circle cx="8" cy="35" r="14" fill="none" stroke="#2A1020" stroke-width="4"/>
    <polygon points="8,22 40,20 52,30 40,34 8,32" fill="#150812"/>
    <circle cx="54" cy="28" r="12" fill="none" stroke="#2A1020" stroke-width="4"/>
    <ellipse cx="26" cy="13" rx="7" ry="11" fill="#150812"/>
    <ellipse cx="28" cy="6" rx="6" ry="6" fill="#FF2D9C" opacity=".85"/>
  </g>
  <!-- 우상단: 커뮤니티 (시안) -->
  <rect x="162" y="30" width="158" height="84" fill="#081518" opacity=".9"/>
  <ellipse cx="241" cy="72" rx="50" ry="30" fill="#00F0FF" opacity=".12" filter="url(#mx-blur)"/>
  <circle cx="222" cy="72" r="12" fill="#0A1A1A" stroke="#00F0FF" stroke-width="1.5" opacity=".7"/>
  <circle cx="248" cy="65" r="10" fill="#0A1A1A" stroke="#00F0FF" stroke-width="1.5" opacity=".6"/>
  <circle cx="270" cy="75" r="11" fill="#0A1A1A" stroke="#00F0FF" stroke-width="1.5" opacity=".5"/>
  <!-- 좌하단: 정비 (옐로우) -->
  <rect x="0" y="116" width="158" height="84" fill="#0A0E08" opacity=".9"/>
  <ellipse cx="79" cy="158" rx="45" ry="25" fill="#FACC15" opacity=".12" filter="url(#mx-blur)"/>
  <g transform="translate(60,130) rotate(25)">
    <rect x="-4" y="-30" width="8" height="50" rx="4" fill="#2A2A18"/>
    <ellipse cx="0" cy="-30" rx="9" ry="8" fill="none" stroke="#2A2A18" stroke-width="4"/>
    <ellipse cx="0" cy="20" rx="8" ry="6" fill="none" stroke="#2A2A18" stroke-width="4"/>
    <rect x="-2" y="-28" width="4" height="46" rx="2" fill="#FACC15" opacity=".4"/>
  </g>
  <!-- 우하단: 시장 (오렌지) -->
  <rect x="162" y="116" width="158" height="84" fill="#0F0C05" opacity=".9"/>
  <ellipse cx="241" cy="158" rx="45" ry="25" fill="#FF8C42" opacity=".12" filter="url(#mx-blur)"/>
  <text x="241" y="163" font-size="28" text-anchor="middle" opacity=".4">🏪</text>
  <!-- 분할선 -->
  <line x1="160" y1="30" x2="160" y2="200" stroke="#FF2D9C" stroke-width=".8" opacity=".35"/>
  <line x1="0" y1="114" x2="320" y2="114" stroke="#00F0FF" stroke-width=".8" opacity=".3"/>
  <!-- 중앙 크로스 글로우 -->
  <circle cx="160" cy="114" r="15" fill="#221A2A" opacity=".95"/>
  <circle cx="160" cy="114" r="8" fill="#FF2D9C" opacity=".6" filter="url(#mx-glow-sm)"/>
  <circle cx="160" cy="114" r="8" fill="#00F0FF" opacity=".4" filter="url(#mx-glow-sm)"/>
  <text x="160" y="118" font-size="8" font-weight="700" fill="#fff" text-anchor="middle" opacity=".9">MIX</text>
  <rect width="320" height="200" rx="14" fill="none" stroke="#FF2D9C" stroke-width="1" opacity=".35"/>
</symbol>
<symbol id="card-DELIVERY_DAILY" viewBox="0 0 320 200" xmlns="http://www.w3.org/2000/svg">
  <defs>
    <linearGradient id="dl-bg" x1="0" y1="0" x2="1" y2="0">
      <stop offset="0%" stop-color="#0A0A0A"/>
      <stop offset="100%" stop-color="#121208"/>
    </linearGradient>
    <radialGradient id="dl-yellow" cx="70%" cy="50%" r="40%">
      <stop offset="0%" stop-color="#FACC15" stop-opacity=".3"/>
      <stop offset="100%" stop-color="#FACC15" stop-opacity="0"/>
    </radialGradient>
    <filter id="dl-blur"><feGaussianBlur stdDeviation="14"/></filter>
    <filter id="dl-motion"><feGaussianBlur stdDeviation="6" in="SourceGraphic" result="blur"/>
      <feComposite in="blur" in2="SourceGraphic"/></filter>
  </defs>
  <rect width="320" height="200" fill="url(#dl-bg)"/>
  <rect width="320" height="200" fill="url(#dl-yellow)"/>
  <!-- 모션 블러 라인 (속도감) -->
  <line x1="0" y1="95" x2="200" y2="95" stroke="#FACC15" stroke-width="1.5" opacity=".18"/>
  <line x1="0" y1="110" x2="180" y2="110" stroke="#FACC15" stroke-width="1" opacity=".12"/>
  <line x1="0" y1="80" x2="160" y2="80" stroke="#FACC15" stroke-width="1" opacity=".1"/>
  <line x1="0" y1="70" x2="120" y2="70" stroke="#FACC15" stroke-width=".8" opacity=".08"/>
  <!-- 도로 -->
  <rect x="0" y="130" width="320" height="70" fill="#0A0A0A" opacity=".95"/>
  <!-- 배달 라이더 (앞 방향, 박스) -->
  <g transform="translate(130,68)">
    <!-- 뒷바퀴 -->
    <circle cx="15" cy="62" r="22" fill="none" stroke="#1A1A14" stroke-width="6"/>
    <circle cx="15" cy="62" r="14" fill="#0A0A0A"/>
    <!-- 배달 박스 (등 뒤) -->
    <rect x="-38" y="10" width="35" height="28" rx="4" fill="#FACC15" opacity=".85"/>
    <rect x="-36" y="12" width="31" height="9" rx="2" fill="#0A0A0A" opacity=".4"/>
    <text x="-20" y="34" font-family="Space Grotesk" font-size="8" font-weight="800" fill="#0A0A0A" opacity=".7" text-anchor="middle">▶</text>
    <!-- 바이크 프레임 -->
    <polygon points="15,38 55,35 75,50 55,58 15,56" fill="#141414"/>
    <!-- 앞바퀴 -->
    <circle cx="77" cy="58" r="20" fill="none" stroke="#1A1A14" stroke-width="6"/>
    <circle cx="77" cy="58" r="12" fill="#0A0A0A"/>
    <!-- 라이더 형광 베스트 -->
    <ellipse cx="30" cy="26" rx="13" ry="18" fill="#FACC15" opacity=".75"/>
    <!-- 헬멧 -->
    <ellipse cx="34" cy="12" rx="12" ry="10" fill="#141414"/>
    <ellipse cx="37" cy="14" rx="5" ry="3.5" fill="#FACC15" opacity=".5"/>
    <!-- 헤드라이트 -->
    <ellipse cx="77" cy="45" rx="7" ry="4" fill="#FACC15" opacity=".9"/>
  </g>
  <!-- 헤드라이트 빔 -->
  <polygon points="207,113 320,125 320,130 207,130" fill="#FACC15" opacity=".08"/>
  <!-- 글로우 -->
  <ellipse cx="220" cy="145" rx="70" ry="25" fill="#FACC15" opacity=".12" filter="url(#dl-blur)"/>
  <rect width="320" height="200" rx="14" fill="none" stroke="#FACC15" stroke-width="1" opacity=".35"/>
</symbol>
<symbol id="card-ONBOARDING" viewBox="0 0 320 200" xmlns="http://www.w3.org/2000/svg">
  <defs>
    <linearGradient id="ob-bg" x1="0" y1="1" x2="1" y2="0">
      <stop offset="0%" stop-color="#0A0800"/>
      <stop offset="50%" stop-color="#1A1005"/>
      <stop offset="100%" stop-color="#2A1808"/>
    </linearGradient>
    <radialGradient id="ob-sunrise" cx="75%" cy="30%" r="50%">
      <stop offset="0%" stop-color="#FF8C42" stop-opacity=".5"/>
      <stop offset="50%" stop-color="#FF5A1F" stop-opacity=".2"/>
      <stop offset="100%" stop-color="#FF5A1F" stop-opacity="0"/>
    </radialGradient>
    <filter id="ob-blur"><feGaussianBlur stdDeviation="16"/></filter>
    <filter id="ob-glow-sm"><feGaussianBlur stdDeviation="5"/></filter>
  </defs>
  <rect width="320" height="200" fill="url(#ob-bg)"/>
  <rect width="320" height="200" fill="url(#ob-sunrise)"/>
  <!-- 수평선 + 빛 줄기 -->
  <rect x="0" y="118" width="320" height="2" fill="#FF5A1F" opacity=".2"/>
  <polygon points="220,0 240,118 200,118" fill="#FF8C42" opacity=".06"/>
  <polygon points="240,0 270,118 210,118" fill="#FF5A1F" opacity=".04"/>
  <!-- 도로 원근감 -->
  <polygon points="80,200 240,200 200,118 120,118" fill="#150F05" opacity=".9"/>
  <line x1="160" y1="118" x2="160" y2="200" stroke="#FF8C42" stroke-width="1.5" stroke-dasharray="8,6" opacity=".3"/>
  <!-- 라이더 (등 뒤 시점 + 헬멧 착용 디테일) -->
  <g transform="translate(105,48)">
    <!-- 바이크 뒤모습 -->
    <ellipse cx="55" cy="80" rx="28" ry="8" fill="#221508" opacity=".7"/>
    <!-- 뒷바퀴 왼 -->
    <circle cx="28" cy="80" r="22" fill="none" stroke="#2A1808" stroke-width="6"/>
    <circle cx="28" cy="80" r="14" fill="#140C04"/>
    <!-- 뒷바퀴 오 -->
    <circle cx="82" cy="80" r="22" fill="none" stroke="#2A1808" stroke-width="6"/>
    <circle cx="82" cy="80" r="14" fill="#140C04"/>
    <!-- 시트 + 몸 -->
    <ellipse cx="55" cy="62" rx="18" ry="8" fill="#1A0E05"/>
    <ellipse cx="55" cy="48" rx="14" ry="18" fill="#221508"/>
    <!-- 어깨 -->
    <ellipse cx="38" cy="52" rx="7" ry="10" fill="#221508"/>
    <ellipse cx="72" cy="52" rx="7" ry="10" fill="#221508"/>
    <!-- 헬멧 뒷면 (디테일) -->
    <ellipse cx="55" cy="28" rx="18" ry="16" fill="#FF5A1F" opacity=".85"/>
    <!-- 헬멧 벤트 -->
    <line x1="40" y1="22" x2="70" y2="22" stroke="#CC4010" stroke-width="1.5" opacity=".5"/>
    <line x1="38" y1="27" x2="72" y2="27" stroke="#CC4010" stroke-width="1" opacity=".35"/>
    <!-- 헬멧 반사 -->
    <ellipse cx="48" cy="20" rx="5" ry="3" fill="#FFB800" opacity=".4"/>
    <!-- 헬멧 글로우 -->
    <ellipse cx="55" cy="28" rx="22" ry="20" fill="#FF5A1F" opacity=".15" filter="url(#ob-glow-sm)"/>
  </g>
  <!-- 수평선 빛 글로우 -->
  <ellipse cx="220" cy="118" rx="100" ry="35" fill="#FF5A1F" opacity=".18" filter="url(#ob-blur)"/>
  <!-- 시작 별 -->
  <circle cx="270" cy="45" r="5" fill="#FFB800" opacity=".9"/>
  <circle cx="270" cy="45" r="14" fill="#FFB800" opacity=".15" filter="url(#ob-glow-sm)"/>
  <line x1="270" y1="35" x2="270" y2="55" stroke="#FFB800" stroke-width="1.5" opacity=".5"/>
  <line x1="260" y1="45" x2="280" y2="45" stroke="#FFB800" stroke-width="1.5" opacity=".5"/>
  <line x1="263" y1="38" x2="277" y2="52" stroke="#FFB800" stroke-width="1" opacity=".4"/>
  <line x1="277" y1="38" x2="263" y2="52" stroke="#FFB800" stroke-width="1" opacity=".4"/>
  <rect width="320" height="200" rx="14" fill="none" stroke="#FF5A1F" stroke-width="1" opacity=".35"/>
</symbol>
</svg>
