<svg style="display:none" id="saigon-rider-profile-v5" xmlns="http://www.w3.org/2000/svg">
<!--
  Saigon Rider — Batch 5: PROFILE Slot
  FRAME   : 11 NEW (C×4 R×3 E×2 L×1 M×1)
  BACKDROP: 11 NEW (C×4 R×3 E×2 L×1 M×1)
  TITLE   : 11 NEW (C×4 R×3 E×2 L×1 M×1)
  Total NEW: 33  |  v5 reuse: 0  |  grand total: 33
-->
<defs>
  <!-- ── FRAME gradients ── -->
  <linearGradient id="b5-fr-wood" x1="0" y1="0" x2="1" y2="1">
    <stop offset="0%"   stop-color="#78350F"/><stop offset="50%"  stop-color="#B45309"/>
    <stop offset="100%" stop-color="#78350F"/>
  </linearGradient>
  <linearGradient id="b5-fr-steel" x1="0" y1="0" x2="1" y2="1">
    <stop offset="0%"   stop-color="#6B7280"/><stop offset="40%"  stop-color="#D1D5DB"/>
    <stop offset="60%"  stop-color="#9CA3AF"/><stop offset="100%" stop-color="#6B7280"/>
  </linearGradient>
  <linearGradient id="b5-fr-orange" x1="0" y1="0" x2="1" y2="1">
    <stop offset="0%"   stop-color="#1F2937"/><stop offset="40%"  stop-color="#F97316"/>
    <stop offset="60%"  stop-color="#FACC15"/><stop offset="100%" stop-color="#1F2937"/>
  </linearGradient>
  <linearGradient id="b5-fr-mekong" x1="0" y1="0" x2="1" y2="1">
    <stop offset="0%"   stop-color="#052E16"/><stop offset="50%"  stop-color="#166534"/>
    <stop offset="100%" stop-color="#052E16"/>
  </linearGradient>
  <linearGradient id="b5-fr-neon" x1="0" y1="0" x2="1" y2="1">
    <stop offset="0%"   stop-color="#0F0824"/><stop offset="35%"  stop-color="#7C3AED"/>
    <stop offset="65%"  stop-color="#00F0FF"/><stop offset="100%" stop-color="#0F0824"/>
  </linearGradient>
  <linearGradient id="b5-fr-tet" x1="0" y1="0" x2="1" y2="1">
    <stop offset="0%"   stop-color="#7F1D1D"/><stop offset="40%"  stop-color="#DC2626"/>
    <stop offset="60%"  stop-color="#FBBF24"/><stop offset="100%" stop-color="#7F1D1D"/>
  </linearGradient>
  <linearGradient id="b5-fr-ghost-e" x1="0" y1="0" x2="1" y2="1">
    <stop offset="0%"   stop-color="#0D0721"/><stop offset="50%"  stop-color="#8B5CF6"/>
    <stop offset="100%" stop-color="#0D0721"/>
  </linearGradient>
  <linearGradient id="b5-fr-delivery-e" x1="0" y1="0" x2="0" y2="1">
    <stop offset="0%"   stop-color="#1C1917"/><stop offset="50%"  stop-color="#F97316"/>
    <stop offset="100%" stop-color="#1C1917"/>
  </linearGradient>
  <linearGradient id="b5-fr-legendary" x1="0" y1="0" x2="1" y2="1">
    <stop offset="0%"   stop-color="#7F1D1D"/><stop offset="30%"  stop-color="#FFD96B"/>
    <stop offset="50%"  stop-color="#FFB800"/><stop offset="70%"  stop-color="#FFD96B"/>
    <stop offset="100%" stop-color="#7F1D1D"/>
  </linearGradient>
  <linearGradient id="b5-fr-mythic" x1="0" y1="0" x2="1" y2="1">
    <stop offset="0%"   stop-color="#FF2D9C"/><stop offset="25%"  stop-color="#FF7438"/>
    <stop offset="50%"  stop-color="#FFB800"/><stop offset="75%"  stop-color="#00F0FF"/>
    <stop offset="100%" stop-color="#B6FF1C"/>
  </linearGradient>

  <!-- ── BACKDROP gradients ── -->
  <linearGradient id="b5-bd-city" x1="0" y1="0" x2="0" y2="1">
    <stop offset="0%"   stop-color="#0A1628"/><stop offset="100%" stop-color="#1E3A5F"/>
  </linearGradient>
  <linearGradient id="b5-bd-alley" x1="0" y1="0" x2="0" y2="1">
    <stop offset="0%"   stop-color="#1C1917"/><stop offset="100%" stop-color="#292524"/>
  </linearGradient>
  <linearGradient id="b5-bd-sunset" x1="0" y1="0" x2="0" y2="1">
    <stop offset="0%"   stop-color="#7C3AED"/><stop offset="50%"  stop-color="#EC4899"/>
    <stop offset="100%" stop-color="#F97316"/>
  </linearGradient>
  <linearGradient id="b5-bd-delta" x1="0" y1="0" x2="0" y2="1">
    <stop offset="0%"   stop-color="#052E16"/><stop offset="60%"  stop-color="#14532D"/>
    <stop offset="100%" stop-color="#166534"/>
  </linearGradient>
  <linearGradient id="b5-bd-neon-city" x1="0" y1="0" x2="0" y2="1">
    <stop offset="0%"   stop-color="#0F0824"/><stop offset="50%"  stop-color="#1E0B4A"/>
    <stop offset="100%" stop-color="#0F0824"/>
  </linearGradient>
  <linearGradient id="b5-bd-tet-sky" x1="0" y1="0" x2="0" y2="1">
    <stop offset="0%"   stop-color="#0C0A1A"/><stop offset="50%"  stop-color="#7F1D1D"/>
    <stop offset="100%" stop-color="#1C0A0A"/>
  </linearGradient>
  <linearGradient id="b5-bd-ghost-mist" x1="0" y1="0" x2="1" y2="1">
    <stop offset="0%"   stop-color="#0D0721" stop-opacity="1"/><stop offset="100%" stop-color="#1E1B4B" stop-opacity="0.8"/>
  </linearGradient>
  <linearGradient id="b5-bd-saigon-dawn" x1="0" y1="0" x2="0" y2="1">
    <stop offset="0%"   stop-color="#F97316"/><stop offset="40%"  stop-color="#FDE68A"/>
    <stop offset="100%" stop-color="#0A1628"/>
  </linearGradient>
  <linearGradient id="b5-bd-golden" x1="0" y1="0" x2="0" y2="1">
    <stop offset="0%"   stop-color="#3B1902"/><stop offset="50%"  stop-color="#7C3516"/>
    <stop offset="100%" stop-color="#FFB800"/>
  </linearGradient>
  <linearGradient id="b5-bd-mythic" x1="0" y1="0" x2="1" y2="1">
    <stop offset="0%"   stop-color="#0D001A"/><stop offset="33%"  stop-color="#2D0050"/>
    <stop offset="66%"  stop-color="#00101A"/><stop offset="100%" stop-color="#0A0D00"/>
  </linearGradient>

  <!-- ── TITLE gradients ── -->
  <linearGradient id="b5-tt-common" x1="0" y1="0" x2="1" y2="0">
    <stop offset="0%"   stop-color="#9CA3AF"/><stop offset="100%" stop-color="#6B7280"/>
  </linearGradient>
  <linearGradient id="b5-tt-orange" x1="0" y1="0" x2="1" y2="0">
    <stop offset="0%"   stop-color="#F97316"/><stop offset="100%" stop-color="#FACC15"/>
  </linearGradient>
  <linearGradient id="b5-tt-neon" x1="0" y1="0" x2="1" y2="0">
    <stop offset="0%"   stop-color="#7C3AED"/><stop offset="100%" stop-color="#00F0FF"/>
  </linearGradient>
  <linearGradient id="b5-tt-red" x1="0" y1="0" x2="1" y2="0">
    <stop offset="0%"   stop-color="#DC2626"/><stop offset="100%" stop-color="#FBBF24"/>
  </linearGradient>
  <linearGradient id="b5-tt-green" x1="0" y1="0" x2="1" y2="0">
    <stop offset="0%"   stop-color="#166534"/><stop offset="100%" stop-color="#4ADE80"/>
  </linearGradient>
  <linearGradient id="b5-tt-ghost" x1="0" y1="0" x2="1" y2="0">
    <stop offset="0%"   stop-color="#4C1D95"/><stop offset="100%" stop-color="#8B5CF6"/>
  </linearGradient>
  <linearGradient id="b5-tt-legendary" x1="0" y1="0" x2="1" y2="0">
    <stop offset="0%"   stop-color="#FFB800"/><stop offset="50%"  stop-color="#FFD96B"/>
    <stop offset="100%" stop-color="#FFB800"/>
  </linearGradient>
  <linearGradient id="b5-tt-mythic" x1="0" y1="0" x2="1" y2="0">
    <stop offset="0%"   stop-color="#FF2D9C"/><stop offset="33%"  stop-color="#FF7438"/>
    <stop offset="66%"  stop-color="#00F0FF"/><stop offset="100%" stop-color="#B6FF1C"/>
  </linearGradient>

  <!-- ── Filters ── -->
  <filter id="b5-glow-sm" x="-20%" y="-20%" width="140%" height="140%">
    <feGaussianBlur stdDeviation="3" result="blur"/>
    <feMerge><feMergeNode in="blur"/><feMergeNode in="SourceGraphic"/></feMerge>
  </filter>
  <filter id="b5-glow-mythic" x="-30%" y="-30%" width="160%" height="160%">
    <feGaussianBlur stdDeviation="6" result="blur"/>
    <feMerge><feMergeNode in="blur"/><feMergeNode in="blur"/><feMergeNode in="SourceGraphic"/></feMerge>
  </filter>

  <!-- ══════════════════════════════════════════
       FRAME: 11 symbols (C×4 R×3 E×2 L×1 M×1)
       ══════════════════════════════════════════ -->

  <!-- FRAME C×4 -->
  <symbol id="item-FRAME_STREET_CLASSIC_C_01" viewBox="0 0 200 200">
    <rect width="200" height="200" fill="#111827" rx="8"/>
    <!-- wooden frame border -->
    <rect x="6" y="6" width="188" height="188" rx="6" fill="none" stroke="url(#b5-fr-wood)" stroke-width="10"/>
    <rect x="14" y="14" width="172" height="172" rx="4" fill="none" stroke="#92400E" stroke-width="2"/>
    <!-- corner studs -->
    <circle cx="18"  cy="18"  r="4" fill="#B45309"/>
    <circle cx="182" cy="18"  r="4" fill="#B45309"/>
    <circle cx="18"  cy="182" r="4" fill="#B45309"/>
    <circle cx="182" cy="182" r="4" fill="#B45309"/>
    <!-- label -->
    <text x="100" y="108" text-anchor="middle" font-family="monospace" font-size="11" fill="#9CA3AF">STREET CLASSIC</text>
    <text x="100" y="122" text-anchor="middle" font-family="monospace" font-size="9"  fill="#6B7280">FRAME · C</text>
  </symbol>

  <symbol id="item-FRAME_STREET_CLASSIC_C_02" viewBox="0 0 200 200">
    <rect width="200" height="200" fill="#111827" rx="8"/>
    <!-- double-line wood frame -->
    <rect x="5"  y="5"  width="190" height="190" rx="7" fill="none" stroke="#92400E" stroke-width="6"/>
    <rect x="13" y="13" width="174" height="174" rx="5" fill="none" stroke="url(#b5-fr-wood)" stroke-width="4"/>
    <rect x="19" y="19" width="162" height="162" rx="3" fill="none" stroke="#92400E" stroke-width="1" stroke-dasharray="4 3"/>
    <text x="100" y="108" text-anchor="middle" font-family="monospace" font-size="11" fill="#9CA3AF">STREET CLASSIC</text>
    <text x="100" y="122" text-anchor="middle" font-family="monospace" font-size="9"  fill="#6B7280">FRAME · C</text>
  </symbol>

  <symbol id="item-FRAME_DELIVERY_HUSTLE_C_01" viewBox="0 0 200 200">
    <rect width="200" height="200" fill="#111827" rx="8"/>
    <!-- industrial orange frame -->
    <rect x="5" y="5" width="190" height="190" rx="6" fill="none" stroke="url(#b5-fr-orange)" stroke-width="10"/>
    <rect x="16" y="16" width="168" height="168" rx="4" fill="none" stroke="#F97316" stroke-width="1" stroke-dasharray="8 4"/>
    <!-- bolt corners -->
    <rect x="8"  y="8"  width="8" height="8" rx="1" fill="#F97316"/>
    <rect x="184" y="8"  width="8" height="8" rx="1" fill="#F97316"/>
    <rect x="8"  y="184" width="8" height="8" rx="1" fill="#F97316"/>
    <rect x="184" y="184" width="8" height="8" rx="1" fill="#F97316"/>
    <text x="100" y="108" text-anchor="middle" font-family="monospace" font-size="11" fill="#9CA3AF">DELIVERY HUSTLE</text>
    <text x="100" y="122" text-anchor="middle" font-family="monospace" font-size="9"  fill="#6B7280">FRAME · C</text>
  </symbol>

  <symbol id="item-FRAME_MEKONG_DELTA_C_01" viewBox="0 0 200 200">
    <rect width="200" height="200" fill="#052E16" rx="8"/>
    <!-- green bamboo-style frame -->
    <rect x="5" y="5" width="190" height="190" rx="8" fill="none" stroke="url(#b5-fr-mekong)" stroke-width="10"/>
    <line x1="5"  y1="80"  x2="5"  y2="120" stroke="#4ADE80" stroke-width="2"/>
    <line x1="195" y1="80" x2="195" y2="120" stroke="#4ADE80" stroke-width="2"/>
    <line x1="80"  y1="5"  x2="120" y2="5"  stroke="#4ADE80" stroke-width="2"/>
    <line x1="80"  y1="195" x2="120" y2="195" stroke="#4ADE80" stroke-width="2"/>
    <text x="100" y="108" text-anchor="middle" font-family="monospace" font-size="11" fill="#4ADE80">MEKONG DELTA</text>
    <text x="100" y="122" text-anchor="middle" font-family="monospace" font-size="9"  fill="#166534">FRAME · C</text>
  </symbol>

  <!-- FRAME R×3 -->
  <symbol id="item-FRAME_NEON_SAIGON_R_01" viewBox="0 0 200 200">
    <rect width="200" height="200" fill="#0F0824" rx="8"/>
    <rect x="5" y="5" width="190" height="190" rx="8" fill="none" stroke="url(#b5-fr-neon)" stroke-width="10" filter="url(#b5-glow-sm)"/>
    <rect x="16" y="16" width="168" height="168" rx="5" fill="none" stroke="#00F0FF" stroke-width="1" stroke-opacity="0.4"/>
    <!-- neon corner accents -->
    <polyline points="5,40 5,5 40,5"   fill="none" stroke="#00F0FF" stroke-width="3" filter="url(#b5-glow-sm)"/>
    <polyline points="160,5 195,5 195,40"  fill="none" stroke="#7C3AED" stroke-width="3" filter="url(#b5-glow-sm)"/>
    <polyline points="5,160 5,195 40,195"  fill="none" stroke="#7C3AED" stroke-width="3" filter="url(#b5-glow-sm)"/>
    <polyline points="160,195 195,195 195,160" fill="none" stroke="#00F0FF" stroke-width="3" filter="url(#b5-glow-sm)"/>
    <text x="100" y="108" text-anchor="middle" font-family="monospace" font-size="11" fill="#00F0FF">NEON SAIGON</text>
    <text x="100" y="122" text-anchor="middle" font-family="monospace" font-size="9"  fill="#7C3AED">FRAME · R</text>
  </symbol>

  <symbol id="item-FRAME_TET_FESTIVAL_R_01" viewBox="0 0 200 200">
    <rect width="200" height="200" fill="#1C0A0A" rx="8"/>
    <rect x="5" y="5" width="190" height="190" rx="8" fill="none" stroke="url(#b5-fr-tet)" stroke-width="10"/>
    <!-- lantern decorations -->
    <ellipse cx="18"  cy="18"  rx="6" ry="8" fill="#DC2626" opacity="0.8"/>
    <ellipse cx="182" cy="18"  rx="6" ry="8" fill="#DC2626" opacity="0.8"/>
    <ellipse cx="18"  cy="182" rx="6" ry="8" fill="#FBBF24" opacity="0.8"/>
    <ellipse cx="182" cy="182" rx="6" ry="8" fill="#FBBF24" opacity="0.8"/>
    <text x="100" y="108" text-anchor="middle" font-family="monospace" font-size="11" fill="#FBBF24">TẾT FESTIVAL</text>
    <text x="100" y="122" text-anchor="middle" font-family="monospace" font-size="9"  fill="#DC2626">FRAME · R</text>
  </symbol>

  <symbol id="item-FRAME_MEKONG_DELTA_R_01" viewBox="0 0 200 200">
    <rect width="200" height="200" fill="#052E16" rx="8"/>
    <rect x="5" y="5" width="190" height="190" rx="8" fill="none" stroke="url(#b5-fr-mekong)" stroke-width="12"/>
    <rect x="18" y="18" width="164" height="164" rx="4" fill="none" stroke="#4ADE80" stroke-width="1" stroke-dasharray="6 3"/>
    <!-- rice paddy stripe -->
    <line x1="5" y1="100" x2="195" y2="100" stroke="#166534" stroke-width="1" stroke-opacity="0.3"/>
    <text x="100" y="108" text-anchor="middle" font-family="monospace" font-size="11" fill="#4ADE80">MEKONG DELTA</text>
    <text x="100" y="122" text-anchor="middle" font-family="monospace" font-size="9"  fill="#166534">FRAME · R</text>
  </symbol>

  <!-- FRAME E×2 -->
  <symbol id="item-FRAME_SAIGON_GHOST_E_01" viewBox="0 0 200 200">
    <rect width="200" height="200" fill="#0D0721" rx="8"/>
    <rect x="5" y="5" width="190" height="190" rx="8" fill="none" stroke="url(#b5-fr-ghost-e)" stroke-width="10" filter="url(#b5-glow-sm)"/>
    <!-- ghost wisps at corners -->
    <ellipse cx="18"  cy="18"  rx="8" ry="4" fill="#8B5CF6" opacity="0.5" filter="url(#b5-glow-sm)"/>
    <ellipse cx="182" cy="18"  rx="8" ry="4" fill="#8B5CF6" opacity="0.5" filter="url(#b5-glow-sm)"/>
    <ellipse cx="18"  cy="182" rx="8" ry="4" fill="#8B5CF6" opacity="0.5" filter="url(#b5-glow-sm)"/>
    <ellipse cx="182" cy="182" rx="8" ry="4" fill="#8B5CF6" opacity="0.5" filter="url(#b5-glow-sm)"/>
    <rect x="16" y="16" width="168" height="168" rx="5" fill="none" stroke="#8B5CF6" stroke-width="1" stroke-opacity="0.3"/>
    <text x="100" y="108" text-anchor="middle" font-family="monospace" font-size="11" fill="#8B5CF6">SAIGON GHOST</text>
    <text x="100" y="122" text-anchor="middle" font-family="monospace" font-size="9"  fill="#4C1D95">FRAME · E</text>
  </symbol>

  <symbol id="item-FRAME_DELIVERY_HUSTLE_E_01" viewBox="0 0 200 200">
    <rect width="200" height="200" fill="#1C1917" rx="8"/>
    <rect x="5" y="5" width="190" height="190" rx="6" fill="none" stroke="url(#b5-fr-delivery-e)" stroke-width="10" filter="url(#b5-glow-sm)"/>
    <!-- speed stripes -->
    <line x1="5" y1="60"  x2="195" y2="60"  stroke="#F97316" stroke-width="1" stroke-opacity="0.2"/>
    <line x1="5" y1="140" x2="195" y2="140" stroke="#F97316" stroke-width="1" stroke-opacity="0.2"/>
    <text x="100" y="108" text-anchor="middle" font-family="monospace" font-size="11" fill="#F97316">DELIVERY HUSTLE</text>
    <text x="100" y="122" text-anchor="middle" font-family="monospace" font-size="9"  fill="#9CA3AF">FRAME · E</text>
  </symbol>

  <!-- FRAME L×1 -->
  <symbol id="item-FRAME_TET_FESTIVAL_L_01" viewBox="0 0 200 200">
    <rect width="200" height="200" fill="#1C0A0A" rx="8"/>
    <rect x="4" y="4" width="192" height="192" rx="9" fill="none" stroke="url(#b5-fr-legendary)" stroke-width="12" filter="url(#b5-glow-sm)"/>
    <rect x="18" y="18" width="164" height="164" rx="5" fill="none" stroke="#FFB800" stroke-width="2"/>
    <!-- golden corner ornaments -->
    <path d="M8,8 L24,8 L24,12 L12,12 L12,24 L8,24 Z" fill="#FFB800"/>
    <path d="M192,8 L176,8 L176,12 L188,12 L188,24 L192,24 Z" fill="#FFB800"/>
    <path d="M8,192 L24,192 L24,188 L12,188 L12,176 L8,176 Z" fill="#FFB800"/>
    <path d="M192,192 L176,192 L176,188 L188,188 L188,176 L192,176 Z" fill="#FFB800"/>
    <text x="100" y="108" text-anchor="middle" font-family="monospace" font-size="11" fill="#FFB800">TẾT FESTIVAL</text>
    <text x="100" y="122" text-anchor="middle" font-family="monospace" font-size="9"  fill="#FBBF24">FRAME · L</text>
  </symbol>

  <!-- FRAME M×1 -->
  <symbol id="item-FRAME_LEGEND_OF_SAIGON_M_01" viewBox="0 0 200 200">
    <rect width="200" height="200" fill="#0A0010" rx="8"/>
    <rect x="4" y="4" width="192" height="192" rx="9" fill="none" stroke="url(#b5-fr-mythic)" stroke-width="12" filter="url(#b5-glow-mythic)">
      <animate attributeName="stroke" values="url(#b5-fr-mythic);url(#b5-fr-neon);url(#b5-fr-mythic)" dur="4s" repeatCount="indefinite"/>
    </rect>
    <rect x="16" y="16" width="168" height="168" rx="6" fill="none" stroke="#FF2D9C" stroke-width="1" stroke-opacity="0.5" filter="url(#b5-glow-sm)"/>
    <!-- mythic corner diamonds -->
    <polygon points="18,10 26,18 18,26 10,18" fill="#FF2D9C" filter="url(#b5-glow-sm)"/>
    <polygon points="182,10 190,18 182,26 174,18" fill="#FFB800" filter="url(#b5-glow-sm)"/>
    <polygon points="18,174 26,182 18,190 10,182" fill="#00F0FF" filter="url(#b5-glow-sm)"/>
    <polygon points="182,174 190,182 182,190 174,182" fill="#B6FF1C" filter="url(#b5-glow-sm)"/>
    <text x="100" y="105" text-anchor="middle" font-family="monospace" font-size="10" fill="url(#b5-fr-mythic)" filter="url(#b5-glow-sm)">LEGEND OF SAIGON</text>
    <text x="100" y="120" text-anchor="middle" font-family="monospace" font-size="9"  fill="#FF2D9C">FRAME · M</text>
  </symbol>

  <!-- ══════════════════════════════════════════
       BACKDROP: 11 symbols (C×4 R×3 E×2 L×1 M×1)
       ══════════════════════════════════════════ -->

  <!-- BACKDROP C×4 -->
  <symbol id="item-BACKDROP_STREET_CLASSIC_C_01" viewBox="0 0 200 200">
    <rect width="200" height="200" fill="url(#b5-bd-city)" rx="4"/>
    <!-- city skyline silhouette -->
    <rect x="10"  y="140" width="12" height="55" fill="#1E3A5F"/>
    <rect x="28"  y="125" width="18" height="70" fill="#1E3A5F"/>
    <rect x="52"  y="130" width="14" height="65" fill="#1E3A5F"/>
    <rect x="72"  y="115" width="20" height="80" fill="#152B47"/>
    <rect x="98"  y="120" width="16" height="75" fill="#152B47"/>
    <rect x="120" y="110" width="22" height="85" fill="#152B47"/>
    <rect x="148" y="128" width="14" height="67" fill="#1E3A5F"/>
    <rect x="168" y="135" width="18" height="60" fill="#1E3A5F"/>
    <!-- windows -->
    <rect x="32"  y="132" width="3" height="3" fill="#FBBF24" opacity="0.6"/>
    <rect x="38"  y="132" width="3" height="3" fill="#FBBF24" opacity="0.6"/>
    <rect x="76"  y="122" width="3" height="3" fill="#93C5FD" opacity="0.6"/>
    <rect x="82"  y="122" width="3" height="3" fill="#93C5FD" opacity="0.6"/>
    <text x="100" y="106" text-anchor="middle" font-family="monospace" font-size="10" fill="#93C5FD">STREET CLASSIC</text>
    <text x="100" y="118" text-anchor="middle" font-family="monospace" font-size="8"  fill="#6B7280">BACKDROP · C</text>
  </symbol>

  <symbol id="item-BACKDROP_STREET_CLASSIC_C_02" viewBox="0 0 200 200">
    <rect width="200" height="200" fill="url(#b5-bd-alley)" rx="4"/>
    <!-- alley texture -->
    <line x1="0" y1="30"  x2="200" y2="30"  stroke="#374151" stroke-width="1" stroke-opacity="0.5"/>
    <line x1="0" y1="80"  x2="200" y2="80"  stroke="#374151" stroke-width="1" stroke-opacity="0.5"/>
    <line x1="0" y1="130" x2="200" y2="130" stroke="#374151" stroke-width="1" stroke-opacity="0.5"/>
    <line x1="0" y1="180" x2="200" y2="180" stroke="#374151" stroke-width="1" stroke-opacity="0.5"/>
    <line x1="50"  y1="0" x2="50"  y2="200" stroke="#374151" stroke-width="1" stroke-opacity="0.3"/>
    <line x1="100" y1="0" x2="100" y2="200" stroke="#374151" stroke-width="1" stroke-opacity="0.3"/>
    <line x1="150" y1="0" x2="150" y2="200" stroke="#374151" stroke-width="1" stroke-opacity="0.3"/>
    <text x="100" y="106" text-anchor="middle" font-family="monospace" font-size="10" fill="#9CA3AF">STREET CLASSIC</text>
    <text x="100" y="118" text-anchor="middle" font-family="monospace" font-size="8"  fill="#6B7280">BACKDROP · C</text>
  </symbol>

  <symbol id="item-BACKDROP_DELIVERY_HUSTLE_C_01" viewBox="0 0 200 200">
    <rect width="200" height="200" fill="#1C1917" rx="4"/>
    <!-- road lines -->
    <rect x="0" y="155" width="200" height="45" fill="#111827"/>
    <line x1="0" y1="155" x2="200" y2="155" stroke="#F97316" stroke-width="2"/>
    <line x1="20" y1="175" x2="50" y2="175" stroke="#FBBF24" stroke-width="2" stroke-dasharray="16 8"/>
    <line x1="80" y1="175" x2="110" y2="175" stroke="#FBBF24" stroke-width="2" stroke-dasharray="16 8"/>
    <line x1="140" y1="175" x2="170" y2="175" stroke="#FBBF24" stroke-width="2" stroke-dasharray="16 8"/>
    <text x="100" y="106" text-anchor="middle" font-family="monospace" font-size="10" fill="#F97316">DELIVERY HUSTLE</text>
    <text x="100" y="118" text-anchor="middle" font-family="monospace" font-size="8"  fill="#6B7280">BACKDROP · C</text>
  </symbol>

  <symbol id="item-BACKDROP_MEKONG_DELTA_C_01" viewBox="0 0 200 200">
    <rect width="200" height="200" fill="url(#b5-bd-delta)" rx="4"/>
    <!-- river waves -->
    <path d="M0,140 Q25,130 50,140 Q75,150 100,140 Q125,130 150,140 Q175,150 200,140 L200,200 L0,200 Z" fill="#052E16" opacity="0.7"/>
    <path d="M0,155 Q25,145 50,155 Q75,165 100,155 Q125,145 150,155 Q175,165 200,155 L200,200 L0,200 Z" fill="#166534" opacity="0.4"/>
    <text x="100" y="106" text-anchor="middle" font-family="monospace" font-size="10" fill="#4ADE80">MEKONG DELTA</text>
    <text x="100" y="118" text-anchor="middle" font-family="monospace" font-size="8"  fill="#166534">BACKDROP · C</text>
  </symbol>

  <!-- BACKDROP R×3 -->
  <symbol id="item-BACKDROP_NEON_SAIGON_R_01" viewBox="0 0 200 200">
    <rect width="200" height="200" fill="url(#b5-bd-neon-city)" rx="4"/>
    <!-- neon grid -->
    <line x1="0" y1="50"  x2="200" y2="50"  stroke="#7C3AED" stroke-width="0.5" stroke-opacity="0.3"/>
    <line x1="0" y1="100" x2="200" y2="100" stroke="#00F0FF" stroke-width="0.5" stroke-opacity="0.3"/>
    <line x1="0" y1="150" x2="200" y2="150" stroke="#7C3AED" stroke-width="0.5" stroke-opacity="0.3"/>
    <line x1="50"  y1="0" x2="50"  y2="200" stroke="#00F0FF" stroke-width="0.5" stroke-opacity="0.3"/>
    <line x1="100" y1="0" x2="100" y2="200" stroke="#7C3AED" stroke-width="0.5" stroke-opacity="0.3"/>
    <line x1="150" y1="0" x2="150" y2="200" stroke="#00F0FF" stroke-width="0.5" stroke-opacity="0.3"/>
    <!-- neon light streaks -->
    <line x1="0" y1="80" x2="200" y2="80" stroke="#00F0FF" stroke-width="1.5" stroke-opacity="0.6" filter="url(#b5-glow-sm)"/>
    <line x1="0" y1="120" x2="200" y2="120" stroke="#FF2D9C" stroke-width="1" stroke-opacity="0.5" filter="url(#b5-glow-sm)"/>
    <text x="100" y="106" text-anchor="middle" font-family="monospace" font-size="10" fill="#00F0FF">NEON SAIGON</text>
    <text x="100" y="118" text-anchor="middle" font-family="monospace" font-size="8"  fill="#7C3AED">BACKDROP · R</text>
  </symbol>

  <symbol id="item-BACKDROP_TET_FESTIVAL_R_01" viewBox="0 0 200 200">
    <rect width="200" height="200" fill="url(#b5-bd-tet-sky)" rx="4"/>
    <!-- firework sparks -->
    <g filter="url(#b5-glow-sm)">
      <circle cx="50"  cy="50"  r="2" fill="#FBBF24"/>
      <circle cx="150" cy="40"  r="2" fill="#DC2626"/>
      <circle cx="100" cy="30"  r="2" fill="#F97316"/>
      <line x1="50" y1="50" x2="35" y2="35" stroke="#FBBF24" stroke-width="1" stroke-opacity="0.6"/>
      <line x1="50" y1="50" x2="65" y2="35" stroke="#FBBF24" stroke-width="1" stroke-opacity="0.6"/>
      <line x1="50" y1="50" x2="50" y2="30" stroke="#FBBF24" stroke-width="1" stroke-opacity="0.6"/>
      <line x1="150" y1="40" x2="135" y2="25" stroke="#DC2626" stroke-width="1" stroke-opacity="0.6"/>
      <line x1="150" y1="40" x2="165" y2="25" stroke="#DC2626" stroke-width="1" stroke-opacity="0.6"/>
    </g>
    <text x="100" y="106" text-anchor="middle" font-family="monospace" font-size="10" fill="#FBBF24">TẾT FESTIVAL</text>
    <text x="100" y="118" text-anchor="middle" font-family="monospace" font-size="8"  fill="#DC2626">BACKDROP · R</text>
  </symbol>

  <symbol id="item-BACKDROP_MEKONG_DELTA_R_01" viewBox="0 0 200 200">
    <rect width="200" height="200" fill="url(#b5-bd-delta)" rx="4"/>
    <!-- lotus flowers -->
    <g transform="translate(50,140)" opacity="0.8">
      <ellipse cx="0" cy="0" rx="8" ry="14" fill="#EC4899" transform="rotate(-30)"/>
      <ellipse cx="0" cy="0" rx="8" ry="14" fill="#EC4899" transform="rotate(0)"/>
      <ellipse cx="0" cy="0" rx="8" ry="14" fill="#EC4899" transform="rotate(30)"/>
      <circle cx="0" cy="-5" r="4" fill="#FBBF24"/>
    </g>
    <g transform="translate(150,150)" opacity="0.8">
      <ellipse cx="0" cy="0" rx="6" ry="11" fill="#F9A8D4" transform="rotate(-30)"/>
      <ellipse cx="0" cy="0" rx="6" ry="11" fill="#F9A8D4" transform="rotate(0)"/>
      <ellipse cx="0" cy="0" rx="6" ry="11" fill="#F9A8D4" transform="rotate(30)"/>
      <circle cx="0" cy="-4" r="3" fill="#FBBF24"/>
    </g>
    <text x="100" y="106" text-anchor="middle" font-family="monospace" font-size="10" fill="#4ADE80">MEKONG DELTA</text>
    <text x="100" y="118" text-anchor="middle" font-family="monospace" font-size="8"  fill="#166534">BACKDROP · R</text>
  </symbol>

  <!-- BACKDROP E×2 -->
  <symbol id="item-BACKDROP_SAIGON_GHOST_E_01" viewBox="0 0 200 200">
    <rect width="200" height="200" fill="#0D0721" rx="4"/>
    <!-- ghost mist background -->
    <ellipse cx="60"  cy="80"  rx="50" ry="30" fill="#4C1D95" opacity="0.2" filter="url(#b5-glow-sm)"/>
    <ellipse cx="140" cy="120" rx="50" ry="30" fill="#7C3AED" opacity="0.2" filter="url(#b5-glow-sm)"/>
    <ellipse cx="100" cy="50"  rx="60" ry="25" fill="#8B5CF6" opacity="0.15" filter="url(#b5-glow-sm)"/>
    <!-- floating skulls / orbs -->
    <circle cx="40"  cy="60"  r="6" fill="#8B5CF6" opacity="0.5" filter="url(#b5-glow-sm)"/>
    <circle cx="160" cy="100" r="5" fill="#A78BFA" opacity="0.5" filter="url(#b5-glow-sm)"/>
    <circle cx="100" cy="40"  r="4" fill="#DDD6FE" opacity="0.4" filter="url(#b5-glow-sm)"/>
    <text x="100" y="106" text-anchor="middle" font-family="monospace" font-size="10" fill="#A78BFA">SAIGON GHOST</text>
    <text x="100" y="118" text-anchor="middle" font-family="monospace" font-size="8"  fill="#4C1D95">BACKDROP · E</text>
  </symbol>

  <symbol id="item-BACKDROP_NEON_SAIGON_E_01" viewBox="0 0 200 200">
    <rect width="200" height="200" fill="#0F0824" rx="4"/>
    <!-- neon rain streaks -->
    <g opacity="0.5" filter="url(#b5-glow-sm)">
      <line x1="20"  y1="0" x2="15"  y2="200" stroke="#00F0FF" stroke-width="1"/>
      <line x1="55"  y1="0" x2="50"  y2="200" stroke="#7C3AED" stroke-width="0.8"/>
      <line x1="90"  y1="0" x2="85"  y2="200" stroke="#00F0FF" stroke-width="1"/>
      <line x1="125" y1="0" x2="120" y2="200" stroke="#FF2D9C" stroke-width="0.8"/>
      <line x1="160" y1="0" x2="155" y2="200" stroke="#00F0FF" stroke-width="1"/>
      <line x1="185" y1="0" x2="180" y2="200" stroke="#7C3AED" stroke-width="0.8"/>
    </g>
    <text x="100" y="106" text-anchor="middle" font-family="monospace" font-size="10" fill="#00F0FF" filter="url(#b5-glow-sm)">NEON SAIGON</text>
    <text x="100" y="118" text-anchor="middle" font-family="monospace" font-size="8"  fill="#7C3AED">BACKDROP · E</text>
  </symbol>

  <!-- BACKDROP L×1 -->
  <symbol id="item-BACKDROP_TET_FESTIVAL_L_01" viewBox="0 0 200 200">
    <rect width="200" height="200" fill="url(#b5-bd-tet-sky)" rx="4"/>
    <!-- golden gate silhouette -->
    <rect x="70" y="60" width="60" height="120" rx="2" fill="#1C0A0A"/>
    <rect x="80" y="50" width="40" height="20"  rx="2" fill="#1C0A0A"/>
    <rect x="85" y="40" width="30" height="16"  rx="2" fill="#1C0A0A"/>
    <!-- golden border glow -->
    <rect x="70" y="60" width="60" height="120" rx="2" fill="none" stroke="url(#b5-fr-legendary)" stroke-width="2" filter="url(#b5-glow-sm)"/>
    <!-- lanterns hanging -->
    <ellipse cx="85"  cy="75" rx="5" ry="7" fill="#DC2626" opacity="0.9" filter="url(#b5-glow-sm)"/>
    <ellipse cx="115" cy="75" rx="5" ry="7" fill="#DC2626" opacity="0.9" filter="url(#b5-glow-sm)"/>
    <text x="100" y="166" text-anchor="middle" font-family="monospace" font-size="10" fill="#FFB800" filter="url(#b5-glow-sm)">TẾT FESTIVAL</text>
    <text x="100" y="178" text-anchor="middle" font-family="monospace" font-size="8"  fill="#FBBF24">BACKDROP · L</text>
  </symbol>

  <!-- BACKDROP M×1 -->
  <symbol id="item-BACKDROP_LEGEND_OF_SAIGON_M_01" viewBox="0 0 200 200">
    <rect width="200" height="200" fill="url(#b5-bd-mythic)" rx="4"/>
    <!-- cosmic swirl -->
    <ellipse cx="100" cy="100" rx="80" ry="80" fill="none" stroke="#FF2D9C" stroke-width="0.5" stroke-opacity="0.2" filter="url(#b5-glow-mythic)"/>
    <ellipse cx="100" cy="100" rx="55" ry="55" fill="none" stroke="#00F0FF" stroke-width="0.5" stroke-opacity="0.3" filter="url(#b5-glow-mythic)"/>
    <ellipse cx="100" cy="100" rx="30" ry="30" fill="none" stroke="#FFB800" stroke-width="0.5" stroke-opacity="0.4" filter="url(#b5-glow-mythic)"/>
    <!-- stars -->
    <circle cx="30"  cy="30"  r="1.5" fill="#FFFFFF" opacity="0.8"/>
    <circle cx="170" cy="40"  r="1.5" fill="#FFFFFF" opacity="0.8"/>
    <circle cx="50"  cy="160" r="1.5" fill="#FFFFFF" opacity="0.8"/>
    <circle cx="160" cy="170" r="1.5" fill="#FFFFFF" opacity="0.8"/>
    <circle cx="100" cy="20"  r="2"   fill="#FFB800" opacity="0.9" filter="url(#b5-glow-sm)"/>
    <text x="100" y="106" text-anchor="middle" font-family="monospace" font-size="10" fill="url(#b5-fr-mythic)" filter="url(#b5-glow-mythic)">LEGEND OF SAIGON</text>
    <text x="100" y="118" text-anchor="middle" font-family="monospace" font-size="8"  fill="#FF2D9C">BACKDROP · M</text>
  </symbol>

  <!-- ══════════════════════════════════════════
       TITLE: 11 symbols (C×4 R×3 E×2 L×1 M×1)
       ══════════════════════════════════════════ -->

  <!-- TITLE C×4 -->
  <symbol id="item-TITLE_STREET_ROOKIE_C_01" viewBox="0 0 200 60">
    <rect width="200" height="60" fill="#1F2937" rx="6"/>
    <rect x="2" y="2" width="196" height="56" rx="5" fill="none" stroke="#374151" stroke-width="1"/>
    <text x="100" y="38" text-anchor="middle" font-family="monospace" font-weight="700" font-size="18" fill="url(#b5-tt-common)">STREET ROOKIE</text>
  </symbol>

  <symbol id="item-TITLE_HUSTLE_KING_C_01" viewBox="0 0 200 60">
    <rect width="200" height="60" fill="#1C1917" rx="6"/>
    <rect x="2" y="2" width="196" height="56" rx="5" fill="none" stroke="#374151" stroke-width="1"/>
    <text x="100" y="38" text-anchor="middle" font-family="monospace" font-weight="700" font-size="18" fill="url(#b5-tt-orange)">HUSTLE KING</text>
  </symbol>

  <symbol id="item-TITLE_DELTA_RIDER_C_01" viewBox="0 0 200 60">
    <rect width="200" height="60" fill="#052E16" rx="6"/>
    <rect x="2" y="2" width="196" height="56" rx="5" fill="none" stroke="#166534" stroke-width="1"/>
    <text x="100" y="38" text-anchor="middle" font-family="monospace" font-weight="700" font-size="18" fill="url(#b5-tt-green)">DELTA RIDER</text>
  </symbol>

  <symbol id="item-TITLE_CITY_WANDERER_C_01" viewBox="0 0 200 60">
    <rect width="200" height="60" fill="#0A1628" rx="6"/>
    <rect x="2" y="2" width="196" height="56" rx="5" fill="none" stroke="#1E3A5F" stroke-width="1"/>
    <text x="100" y="38" text-anchor="middle" font-family="monospace" font-weight="700" font-size="16" fill="#93C5FD">CITY WANDERER</text>
  </symbol>

  <!-- TITLE R×3 -->
  <symbol id="item-TITLE_NEON_RACER_R_01" viewBox="0 0 200 60">
    <rect width="200" height="60" fill="#0F0824" rx="6"/>
    <rect x="2" y="2" width="196" height="56" rx="5" fill="none" stroke="#7C3AED" stroke-width="1" filter="url(#b5-glow-sm)"/>
    <text x="100" y="38" text-anchor="middle" font-family="monospace" font-weight="700" font-size="18" fill="url(#b5-tt-neon)" filter="url(#b5-glow-sm)">NEON RACER</text>
  </symbol>

  <symbol id="item-TITLE_TET_CHAMPION_R_01" viewBox="0 0 200 60">
    <rect width="200" height="60" fill="#1C0A0A" rx="6"/>
    <rect x="2" y="2" width="196" height="56" rx="5" fill="none" stroke="#DC2626" stroke-width="1"/>
    <text x="100" y="38" text-anchor="middle" font-family="monospace" font-weight="700" font-size="16" fill="url(#b5-tt-red)">TẾT CHAMPION</text>
  </symbol>

  <symbol id="item-TITLE_GHOST_RIDER_R_01" viewBox="0 0 200 60">
    <rect width="200" height="60" fill="#0D0721" rx="6"/>
    <rect x="2" y="2" width="196" height="56" rx="5" fill="none" stroke="#8B5CF6" stroke-width="1" filter="url(#b5-glow-sm)"/>
    <text x="100" y="38" text-anchor="middle" font-family="monospace" font-weight="700" font-size="18" fill="url(#b5-tt-ghost)" filter="url(#b5-glow-sm)">GHOST RIDER</text>
  </symbol>

  <!-- TITLE E×2 -->
  <symbol id="item-TITLE_PHANTOM_ACE_E_01" viewBox="0 0 200 60">
    <rect width="200" height="60" fill="#0D0721" rx="6"/>
    <rect x="2" y="2" width="196" height="56" rx="5" fill="none" stroke="#8B5CF6" stroke-width="2" filter="url(#b5-glow-sm)"/>
    <!-- animated shimmer -->
    <rect x="2" y="2" width="196" height="56" rx="5" fill="none" stroke="#A78BFA" stroke-width="0.5" stroke-opacity="0.4"/>
    <text x="100" y="38" text-anchor="middle" font-family="monospace" font-weight="700" font-size="18" fill="url(#b5-tt-ghost)" filter="url(#b5-glow-sm)">PHANTOM ACE</text>
  </symbol>

  <symbol id="item-TITLE_NEON_SOVEREIGN_E_01" viewBox="0 0 200 60">
    <rect width="200" height="60" fill="#0F0824" rx="6"/>
    <rect x="2" y="2" width="196" height="56" rx="5" fill="none" stroke="#00F0FF" stroke-width="2" filter="url(#b5-glow-sm)"/>
    <text x="100" y="38" text-anchor="middle" font-family="monospace" font-weight="700" font-size="16" fill="url(#b5-tt-neon)" filter="url(#b5-glow-sm)">NEON SOVEREIGN</text>
  </symbol>

  <!-- TITLE L×1 -->
  <symbol id="item-TITLE_GOLDEN_DRAGON_L_01" viewBox="0 0 200 60">
    <rect width="200" height="60" fill="#1C0A0A" rx="6"/>
    <rect x="2" y="2" width="196" height="56" rx="5" fill="none" stroke="url(#b5-fr-legendary)" stroke-width="2" filter="url(#b5-glow-sm)"/>
    <text x="100" y="38" text-anchor="middle" font-family="monospace" font-weight="700" font-size="16" fill="url(#b5-tt-legendary)" filter="url(#b5-glow-sm)">GOLDEN DRAGON</text>
  </symbol>

  <!-- TITLE M×1 -->
  <symbol id="item-TITLE_LEGEND_OF_SAIGON_M_01" viewBox="0 0 200 60">
    <rect width="200" height="60" fill="#0A0010" rx="6"/>
    <rect x="2" y="2" width="196" height="56" rx="5" fill="none" stroke="url(#b5-fr-mythic)" stroke-width="2" filter="url(#b5-glow-mythic)">
      <animate attributeName="stroke-opacity" values="1;0.5;1" dur="2s" repeatCount="indefinite"/>
    </rect>
    <text x="100" y="38" text-anchor="middle" font-family="monospace" font-weight="700" font-size="14" fill="url(#b5-tt-mythic)" filter="url(#b5-glow-mythic)">LEGEND OF SAIGON</text>
  </symbol>

</defs>
</svg>
